<svg xmlns="http://www.w3.org/2000/svg" viewBox="0 0 512 512">
  <rect fill="#000000" width="512" height="512"/>
  <path fill="#ffffff" d="m90.32,451c-9.18,0-16.65-7.47-16.65-16.65s7.47-16.65,16.65-16.65h331.35c9.18,0,16.65,7.47,16.65,16.65s-7.47,16.65-16.65,16.65H90.32Zm0-59.45c-9.18,0-16.65-7.47-16.65-16.65s7.47-16.65,16.65-16.65h331.35c9.18,0,16.65,7.47,16.65,16.65s-7.47,16.65-16.65,16.65H90.32Zm0-59.45c-9.18,0-16.65-7.47-16.65-16.65s7.47-16.65,16.65-16.65h175.35c9.18,0,16.65,7.47,16.65,16.65s-7.47,16.65-16.65,16.65H90.32Zm0-59.45c-9.18,0-16.65-7.47-16.65-16.65s7.47-16.65,16.65-16.65h175.35c9.18,0,16.65,7.47,16.65,16.65s-7.47,16.65-16.65,16.65H90.32Zm0-59.45c-9.18,0-16.65-7.47-16.65-16.65s7.47-16.65,16.65-16.65h175.35c9.18,0,16.65,7.47,16.65,16.65s-7.47,16.65-16.65,16.65H90.32Zm0-59.45c-9.18,0-16.65-7.47-16.65-16.65s7.47-16.65,16.65-16.65h175.35c9.18,0,16.65,7.47,16.65,16.65s-7.47,16.65-16.65,16.65H90.32Zm0-59.45c-9.18,0-16.65-7.47-16.65-16.65s7.47-16.65,16.65-16.65h175.35c9.18,0,16.65,7.47,16.65,16.65s-7.47,16.65-16.65,16.65H90.32Z"/>
</svg>